<svg width="103" height="122" viewBox="0 0 103 122" fill="none" xmlns="http://www.w3.org/2000/svg">
<path d="M1.5 23.093L51.5 1L101.5 23.093V55.6512C101.5 83.5581 84.0581 105.651 51.5 120.767C21.2674 105.651 1.5 84.7209 1.5 55.6512V23.093Z" stroke="#F7F5F1" stroke-width="1.2"/>
<path d="M32.1525 48.6C35.0859 48.6 37.3519 49.304 38.9505 50.712C40.5492 52.1053 41.3485 53.968 41.3485 56.3C41.3485 58.632 40.5492 60.502 38.9505 61.91C37.3519 63.3033 35.0859 64 32.1525 64H24.7825V48.6H32.1525ZM32.0205 62.614C34.4845 62.614 36.3765 62.0347 37.6965 60.876C39.0165 59.7173 39.6765 58.192 39.6765 56.3C39.6765 54.408 39.0165 52.8827 37.6965 51.724C36.3765 50.5653 34.4845 49.986 32.0205 49.986H26.4545V62.614H32.0205ZM57.699 58.456V58.676H45.137C45.2397 60.1133 45.8117 61.2133 46.853 61.976C47.909 62.724 49.2877 63.098 50.989 63.098C52.2063 63.098 53.2403 62.9073 54.091 62.526C54.9563 62.1447 55.5723 61.6387 55.939 61.008L57.435 61.074C57.0244 62.0713 56.2617 62.856 55.147 63.428C54.047 63.9853 52.661 64.264 50.989 64.264C48.701 64.264 46.8897 63.7507 45.555 62.724C44.2203 61.6973 43.553 60.2013 43.553 58.236C43.553 56.2853 44.213 54.7967 45.533 53.77C46.8677 52.7287 48.613 52.208 50.769 52.208C52.9837 52.208 54.6923 52.736 55.895 53.792C57.0977 54.8333 57.699 56.388 57.699 58.456ZM50.769 53.374C49.1997 53.374 47.9017 53.7407 46.875 54.474C45.863 55.1927 45.291 56.234 45.159 57.598H56.137C56.093 56.3073 55.587 55.2807 54.619 54.518C53.651 53.7553 52.3677 53.374 50.769 53.374ZM60.9193 64V48.6H74.2073V49.986H62.5913V55.816H72.0733V57.18H62.5913V64H60.9193ZM76.9583 50.514V48.138H78.6303V50.514H76.9583ZM77.0023 64V52.472H78.5863V64H77.0023Z" fill="#F7F5F1"/>
</svg>
