<svg width="119" height="114" viewBox="0 0 119 114" fill="none" xmlns="http://www.w3.org/2000/svg">
<g id="Group 9">
<path id="Rectangle 3" d="M93 52V26L68.5 1H1V113H93V97" stroke="#F7F5F1" stroke-width="1.2"/>
<g id="Group 6">
<g id="Group 5">
<circle id="Ellipse 5" cx="84.5" cy="74.5" r="23.9" stroke="#F7F5F1" stroke-width="1.2"/>
<path id="Vector 12" d="M105 95L118 108" stroke="#F7F5F1" stroke-width="1.3"/>
</g>
<path id="Portal" d="M49 57.0018L50 57C50 49.2524 56.2688 42.9731 64 42.9731V42.4731V41.9731C56.2861 41.9731 50.0279 35.722 50 27.9982L49 28C49 35.7476 42.7311 42.0269 35 42.0269V42.5269V43.0269C42.7139 43.0269 48.972 49.278 49 57.0018Z" stroke="#F7F5F1"/>
<path id="Portal_2" d="M65 32.0018L66 32C66 29.2321 68.2394 26.9898 71 26.9898V26.4898V25.9898C68.2456 25.9898 66.01 23.7576 66 20.9982L65 21C65 23.7679 62.7605 26.0102 60 26.0102V26.5102V27.0102C62.7544 27.0102 64.99 29.2424 65 32.0018Z" stroke="#F7F5F1"/>
</g>
</g>
</svg>
