<svg width="116" height="125" viewBox="0 0 116 125" fill="none" xmlns="http://www.w3.org/2000/svg">
<path d="M81.5 34L115 34L115 93.375L115 124L0.999996 124L1 34L31.5 34" stroke="#F7F5F1" stroke-width="1.2"/>
<circle cx="56.5" cy="26.5" r="25.9" stroke="#F7F5F1" stroke-width="1.2"/>
<path d="M46 27.1765L52.8868 34L67 20" stroke="#F7F5F1" stroke-width="1.3"/>
<path d="M62 69H97" stroke="#F7F5F1" stroke-width="1.2"/>
<path d="M62 85H97" stroke="#F7F5F1" stroke-width="1.2"/>
<path d="M62 101H97" stroke="#F7F5F1" stroke-width="1.2"/>
<circle cx="32.5" cy="72.5" r="8.9" stroke="#F7F5F1" stroke-width="1.2"/>
<path d="M15.6204 101.9H15.6105C15.9264 92.8443 23.3672 85.6 32.5 85.6C41.6328 85.6 49.0736 92.8443 49.3895 101.9H49.3797H49.3653H49.3508H49.3361H49.3213H49.3063H49.2912H49.2759H49.2605H49.2449H49.2291H49.2132H49.1972H49.181H49.1646H49.1481H49.1314H49.1146H49.0976H49.0805H49.0632H49.0458H49.0282H49.0105H48.9926H48.9746H48.9564H48.9381H48.9196H48.901H48.8822H48.8633H48.8442H48.825H48.8057H48.7861H48.7665H48.7467H48.7267H48.7066H48.6864H48.666H48.6454H48.6248H48.6039H48.583H48.5618H48.5406H48.5192H48.4976H48.4759H48.4541H48.4321H48.41H48.3877H48.3653H48.3428H48.3201H48.2973H48.2743H48.2512H48.2279H48.2046H48.181H48.1574H48.1335H48.1096H48.0855H48.0613H48.0369H48.0124H47.9878H47.963H47.9381H47.913H47.8878H47.8625H47.8371H47.8115H47.7857H47.7599H47.7339H47.7077H47.6814H47.655H47.6285H47.6018H47.575H47.5481H47.521H47.4938H47.4665H47.439H47.4114H47.3837H47.3558H47.3278H47.2997H47.2714H47.243H47.2145H47.1859H47.1571H47.1282H47.0991H47.07H47.0407H47.0113H46.9817H46.9521H46.9223H46.8923H46.8623H46.8321H46.8018H46.7713H46.7408H46.7101H46.6793H46.6484H46.6173H46.5861H46.5548H46.5234H46.4918H46.4601H46.4283H46.3964H46.3644H46.3322H46.2999H46.2675H46.235H46.2023H46.1695H46.1366H46.1036H46.0705H46.0372H46.0039H45.9704H45.9367H45.903H45.8692H45.8352H45.8011H45.7669H45.7326H45.6981H45.6636H45.6289H45.5941H45.5592H45.5242H45.4891H45.4538H45.4185H45.383H45.3474H45.3117H45.2758H45.2399H45.2039H45.1677H45.1314H45.095H45.0585H45.0219H44.9852H44.9484H44.9114H44.8744H44.8372H44.7999H44.7625H44.725H44.6874H44.6497H44.6119H44.574H44.5359H44.4978H44.4595H44.4211H44.3827H44.3441H44.3054H44.2666H44.2277H44.1887H44.1496H44.1104H44.071H44.0316H43.9921H43.9524H43.9127H43.8729H43.8329H43.7929H43.7527H43.7124H43.6721H43.6316H43.5911H43.5504H43.5096H43.4688H43.4278H43.3867H43.3455H43.3043H43.2629H43.2214H43.1799H43.1382H43.0964H43.0546H43.0126H42.9705H42.9284H42.8861H42.8438H42.8013H42.7588H42.7161H42.6734H42.6305H42.5876H42.5446H42.5014H42.4582H42.4149H42.3715H42.328H42.2844H42.2407H42.1969H42.1531H42.1091H42.065H42.0209H41.9767H41.9323H41.8879H41.8434H41.7988H41.7541H41.7093H41.6644H41.6194H41.5744H41.5292H41.484H41.4387H41.3933H41.3478H41.3022H41.2565H41.2107H41.1649H41.119H41.0729H41.0268H40.9806H40.9344H40.888H40.8415H40.795H40.7484H40.7017H40.6549H40.608H40.5611H40.514H40.4669H40.4197H40.3724H40.325H40.2776H40.2301H40.1824H40.1347H40.087H40.0391H39.9912H39.9432H39.8951H39.8469H39.7986H39.7503H39.7019H39.6534H39.6048H39.5562H39.5075H39.4587H39.4098H39.3608H39.3118H39.2627H39.2135H39.1642H39.1149H39.0655H39.016H38.9664H38.9168H38.8671H38.8173H38.7675H38.7175H38.6675H38.6175H38.5673H38.5171H38.4668H38.4164H38.366H38.3155H38.2649H38.2143H38.1635H38.1128H38.0619H38.011H37.96H37.9089H37.8578H37.8066H37.7553H37.704H37.6526H37.6011H37.5495H37.4979H37.4463H37.3945H37.3427H37.2908H37.2389H37.1869H37.1348H37.0827H37.0305H36.9782H36.9259H36.8735H36.8211H36.7686H36.716H36.6633H36.6106H36.5579H36.505H36.4522H36.3992H36.3462H36.2931H36.24H36.1868H36.1335H36.0802H36.0269H35.9734H35.9199H35.8664H35.8128H35.7591H35.7054H35.6516H35.5978H35.5439H35.4899H35.4359H35.3819H35.3278H35.2736H35.2194H35.1651H35.1107H35.0563H35.0019H34.9474H34.8928H34.8382H34.7836H34.7289H34.6741H34.6193H34.5644H34.5095H34.4545H34.3995H34.3444H34.2893H34.2341H34.1789H34.1236H34.0683H34.0129H33.9575H33.902H33.8465H33.7909H33.7353H33.6796H33.6239H33.5681H33.5123H33.4565H33.4005H33.3446H33.2886H33.2326H33.1765H33.1203H33.0642H33.0079H32.9517H32.8954H32.839H32.7826H32.7262H32.6697H32.6132H32.5566H32.5H32.4434H32.3868H32.3303H32.2738H32.2174H32.161H32.1046H32.0483H31.9921H31.9358H31.8797H31.8235H31.7674H31.7114H31.6554H31.5995H31.5435H31.4877H31.4319H31.3761H31.3204H31.2647H31.2091H31.1535H31.098H31.0425H30.9871H30.9317H30.8764H30.8211H30.7659H30.7107H30.6556H30.6005H30.5455H30.4905H30.4356H30.3807H30.3259H30.2711H30.2164H30.1618H30.1072H30.0526H29.9981H29.9437H29.8893H29.8349H29.7806H29.7264H29.6722H29.6181H29.5641H29.5101H29.4561H29.4022H29.3484H29.2946H29.2409H29.1872H29.1336H29.0801H29.0266H28.9731H28.9198H28.8665H28.8132H28.76H28.7069H28.6538H28.6008H28.5478H28.495H28.4421H28.3894H28.3367H28.284H28.2314H28.1789H28.1265H28.0741H28.0218H27.9695H27.9173H27.8652H27.8131H27.7611H27.7092H27.6573H27.6055H27.5537H27.5021H27.4505H27.3989H27.3474H27.296H27.2447H27.1934H27.1422H27.0911H27.04H26.989H26.9381H26.8872H26.8365H26.7857H26.7351H26.6845H26.634H26.5836H26.5332H26.4829H26.4327H26.3825H26.3325H26.2825H26.2325H26.1827H26.1329H26.0832H26.0336H25.984H25.9345H25.8851H25.8358H25.7865H25.7373H25.6882H25.6392H25.5902H25.5413H25.4925H25.4438H25.3952H25.3466H25.2981H25.2497H25.2014H25.1531H25.1049H25.0568H25.0088H24.9609H24.913H24.8653H24.8176H24.7699H24.7224H24.675H24.6276H24.5803H24.5331H24.486H24.4389H24.392H24.3451H24.2983H24.2516H24.205H24.1585H24.112H24.0656H24.0194H23.9732H23.9271H23.881H23.8351H23.7893H23.7435H23.6978H23.6522H23.6067H23.5613H23.516H23.4708H23.4256H23.3806H23.3356H23.2907H23.2459H23.2012H23.1566H23.1121H23.0677H23.0233H22.9791H22.935H22.8909H22.8469H22.8031H22.7593H22.7156H22.672H22.6285H22.5851H22.5418H22.4986H22.4554H22.4124H22.3695H22.3266H22.2839H22.2412H22.1987H22.1562H22.1139H22.0716H22.0295H21.9874H21.9454H21.9036H21.8618H21.8201H21.7786H21.7371H21.6957H21.6545H21.6133H21.5722H21.5312H21.4904H21.4496H21.4089H21.3684H21.3279H21.2876H21.2473H21.2071H21.1671H21.1271H21.0873H21.0476H21.0079H20.9684H20.929H20.8896H20.8504H20.8113H20.7723H20.7334H20.6946H20.6559H20.6173H20.5789H20.5405H20.5022H20.4641H20.426H20.3881H20.3503H20.3126H20.275H20.2375H20.2001H20.1628H20.1256H20.0886H20.0516H20.0148H19.9781H19.9415H19.905H19.8686H19.8323H19.7961H19.7601H19.7242H19.6883H19.6526H19.617H19.5815H19.5462H19.5109H19.4758H19.4408H19.4059H19.3711H19.3364H19.3019H19.2674H19.2331H19.1989H19.1648H19.1308H19.097H19.0633H19.0296H18.9961H18.9628H18.9295H18.8964H18.8634H18.8305H18.7977H18.765H18.7325H18.7001H18.6678H18.6356H18.6036H18.5717H18.5399H18.5082H18.4766H18.4452H18.4139H18.3827H18.3516H18.3207H18.2899H18.2592H18.2287H18.1982H18.1679H18.1377H18.1077H18.0777H18.0479H18.0183H17.9887H17.9593H17.93H17.9009H17.8718H17.8429H17.8141H17.7855H17.757H17.7286H17.7003H17.6722H17.6442H17.6163H17.5886H17.561H17.5335H17.5062H17.479H17.4519H17.425H17.3982H17.3715H17.345H17.3185H17.2923H17.2661H17.2401H17.2143H17.1885H17.1629H17.1375H17.1122H17.087H17.0619H17.037H17.0122H16.9876H16.9631H16.9387H16.9145H16.8904H16.8665H16.8426H16.819H16.7954H16.7721H16.7488H16.7257H16.7027H16.6799H16.6572H16.6347H16.6123H16.59H16.5679H16.5459H16.5241H16.5024H16.4808H16.4594H16.4382H16.417H16.3961H16.3752H16.3546H16.334H16.3136H16.2934H16.2733H16.2533H16.2335H16.2139H16.1943H16.175H16.1558H16.1367H16.1178H16.099H16.0804H16.0619H16.0436H16.0254H16.0074H15.9895H15.9718H15.9542H15.9368H15.9195H15.9024H15.8854H15.8686H15.8519H15.8354H15.819H15.8028H15.7868H15.7709H15.7551H15.7395H15.7241H15.7088H15.6937H15.6787H15.6639H15.6492H15.6347H15.6204Z" stroke="#F7F5F1" stroke-width="1.2"/>
</svg>
