<svg width="21" height="20" viewBox="0 0 21 20" fill="none" xmlns="http://www.w3.org/2000/svg">
<g id="Group 13">
<path id="Vector" opacity="0.2" d="M13.7264 12.9712C13.0782 13.5345 12.2716 14.2352 10.8024 14.2352H9.92528C8.86366 14.2352 7.89803 13.8577 7.20723 13.1718C6.53265 12.5017 6.16007 11.5854 6.16007 10.5903V9.41349C6.16007 8.4184 6.53177 7.50126 7.20723 6.83203C7.89847 6.14615 8.86366 5.76861 9.92528 5.76861H10.8024C12.2712 5.76861 13.0782 6.46938 13.7264 7.03262C14.3988 7.61689 14.9796 8.12145 16.5269 8.12145C16.7671 8.12145 17.0029 8.10261 17.2322 8.06626C17.2304 8.06144 17.2287 8.0575 17.2269 8.05312C17.1349 7.82975 17.0266 7.60988 16.9017 7.3979L15.8672 5.64159C14.9182 4.02982 13.1636 3.03735 11.2657 3.03735H9.19635C7.2984 3.03735 5.54379 4.03026 4.59481 5.64159L3.56036 7.3979C2.61139 9.00967 2.61139 10.9946 3.56036 12.6059L4.59481 14.3622C5.54379 15.974 7.2984 16.966 9.19635 16.966H11.2657C13.1636 16.966 14.9182 15.9731 15.8672 14.3622L16.9017 12.6059C17.0266 12.3935 17.1349 12.1745 17.2269 11.9512C17.2287 11.9463 17.2304 11.9424 17.2322 11.938C17.0029 11.9017 16.768 11.8828 16.5269 11.8828C14.98 11.8824 14.3988 12.3869 13.7264 12.9712Z" fill="black"/>
<path id="Vector_2" opacity="0.2" d="M10.8029 6.83398H9.92578C8.31011 6.83398 7.24805 7.96529 7.24805 9.41326V10.5901C7.24805 12.0381 8.30967 13.1694 9.92578 13.1694H10.8029C13.1571 13.1694 12.9721 10.8166 16.527 10.8166C16.8675 10.8166 17.2042 10.8472 17.5316 10.9068C17.6394 10.3085 17.6394 9.69619 17.5316 9.09747C17.2037 9.15704 16.8675 9.1877 16.527 9.1877C12.9721 9.18726 13.1571 6.83398 10.8029 6.83398Z" fill="black"/>
<path id="Vector_3" opacity="0.2" d="M19.573 11.7659C18.9659 11.3271 18.2694 11.0406 17.5308 10.9057C17.5295 10.9114 17.5291 10.9171 17.5277 10.9228C17.4646 11.2675 17.366 11.607 17.231 11.9363C17.8543 12.0353 18.4285 12.2648 18.9194 12.6174C18.9177 12.6226 18.9164 12.6279 18.9146 12.6336C18.6315 13.5345 18.2045 14.3838 17.6465 15.1564C17.0951 15.9193 16.4284 16.5912 15.6644 17.1522C14.0786 18.3181 12.1898 18.934 10.2016 18.934C8.97076 18.934 7.7772 18.6979 6.65378 18.2323C5.56892 17.7825 4.59409 17.1382 3.75601 16.317C2.91837 15.4958 2.26132 14.5406 1.80239 13.4767C1.32769 12.3756 1.08661 11.2058 1.08661 9.99912C1.08661 8.79249 1.32769 7.62263 1.80239 6.52155C2.26132 5.45813 2.91837 4.50245 3.75601 3.68124C4.59365 2.86002 5.56848 2.21619 6.65378 1.76594C7.77677 1.30037 8.97032 1.0643 10.2016 1.0643C12.1898 1.0643 14.0786 1.6801 15.6644 2.84601C16.4284 3.4075 17.0947 4.07892 17.6465 4.84189C18.2045 5.61493 18.6315 6.46417 18.9146 7.36466C18.9164 7.37036 18.9181 7.37561 18.9194 7.38087C18.4289 7.73301 17.8543 7.96339 17.231 8.06193C17.366 8.39173 17.4651 8.73204 17.5277 9.07673C17.5291 9.08243 17.5295 9.08768 17.5308 9.09338C18.2694 8.95848 18.9655 8.67204 19.573 8.23318C20.1551 7.81097 20.0424 7.334 19.9539 7.05107C18.6709 2.96864 14.7904 0 10.202 0C4.56735 0 0 4.47705 0 10C0 15.523 4.56779 20 10.202 20C14.7904 20 18.6709 17.0309 19.9539 12.9463C20.0429 12.6651 20.1559 12.1886 19.573 11.7659Z" fill="black"/>
<path id="Vector_4" opacity="0.2" d="M17.2318 8.06523C17.0025 8.10158 16.7676 8.12042 16.5265 8.12042C14.9796 8.12042 14.3984 7.61586 13.726 7.03159C13.0778 6.46835 12.2712 5.76758 10.802 5.76758H9.92488C8.86326 5.76758 7.89763 6.14512 7.20683 6.831C6.53225 7.50111 6.15967 8.41737 6.15967 9.41246V10.5893C6.15967 11.5844 6.53137 12.5015 7.20683 13.1708C7.89807 13.8567 8.86326 14.2342 9.92488 14.2342H10.802C12.2708 14.2342 13.0778 13.533 13.726 12.9702C14.3984 12.3859 14.9792 11.8814 16.5265 11.8814C16.7667 11.8814 17.0025 11.9002 17.2318 11.9366C17.3668 11.6072 17.465 11.2673 17.5285 10.9231C17.5298 10.9174 17.5303 10.9117 17.5316 10.906C17.2037 10.8464 16.8675 10.8158 16.5269 10.8158C12.9721 10.8158 13.1571 13.1686 10.8028 13.1686H9.92576C8.31009 13.1686 7.24803 12.0373 7.24803 10.5893V9.41246C7.24803 7.96449 8.30965 6.83319 9.92576 6.83319H10.8028C13.1571 6.83319 12.9726 9.18603 16.5269 9.18603C16.8675 9.18603 17.2041 9.15537 17.5316 9.0958C17.5303 9.09011 17.5298 9.08485 17.5285 9.07916C17.4658 8.73534 17.3668 8.39547 17.2318 8.06523Z" fill="black"/>
<path id="Vector_5" opacity="0.2" d="M17.2318 8.06523C17.0025 8.10158 16.7676 8.12042 16.5265 8.12042C14.9796 8.12042 14.3984 7.61586 13.726 7.03159C13.0778 6.46835 12.2712 5.76758 10.802 5.76758H9.92488C8.86326 5.76758 7.89763 6.14512 7.20683 6.831C6.53225 7.50111 6.15967 8.41737 6.15967 9.41246V10.5893C6.15967 11.5844 6.53137 12.5015 7.20683 13.1708C7.89807 13.8567 8.86326 14.2342 9.92488 14.2342H10.802C12.2708 14.2342 13.0778 13.533 13.726 12.9702C14.3984 12.3859 14.9792 11.8814 16.5265 11.8814C16.7667 11.8814 17.0025 11.9002 17.2318 11.9366C17.3668 11.6072 17.465 11.2673 17.5285 10.9231C17.5298 10.9174 17.5303 10.9117 17.5316 10.906C17.2037 10.8464 16.8675 10.8158 16.5269 10.8158C12.9721 10.8158 13.1571 13.1686 10.8028 13.1686H9.92576C8.31009 13.1686 7.24803 12.0373 7.24803 10.5893V9.41246C7.24803 7.96449 8.30965 6.83319 9.92576 6.83319H10.8028C13.1571 6.83319 12.9726 9.18603 16.5269 9.18603C16.8675 9.18603 17.2041 9.15537 17.5316 9.0958C17.5303 9.09011 17.5298 9.08485 17.5285 9.07916C17.4658 8.73534 17.3668 8.39547 17.2318 8.06523Z" fill="black"/>
</g>
</svg>
