<svg width="20" height="15" viewBox="0 0 20 15" fill="none" xmlns="http://www.w3.org/2000/svg">
<path id="Email" d="M2.60257 14.6447C1.74057 14.6447 1.09131 14.4292 0.654787 13.9982C0.218262 13.5672 0 12.9263 0 12.0753V2.92488C0 2.06841 0.207211 1.42744 0.621633 1.00197C1.03605 0.570968 1.61348 0.355469 2.35392 0.355469H17.3974C18.2594 0.355469 18.9087 0.570968 19.3452 1.00197C19.7817 1.42744 20 2.06841 20 2.92488V12.0753C20 12.9263 19.7928 13.5672 19.3784 13.9982C18.9639 14.4292 18.3865 14.6447 17.6461 14.6447H2.60257ZM2.55284 13.3766H17.4389C17.8533 13.3766 18.171 13.2661 18.392 13.0451C18.6186 12.824 18.7319 12.5008 18.7319 12.0753V2.92488C18.7319 2.49941 18.6186 2.17616 18.392 1.95514C18.171 1.73411 17.8533 1.6236 17.4389 1.6236H2.55284C2.14394 1.6236 1.82622 1.73411 1.59967 1.95514C1.37864 2.17616 1.26813 2.49665 1.26813 2.9166V12.067C1.26813 12.498 1.37864 12.824 1.59967 13.0451C1.82622 13.2661 2.14394 13.3766 2.55284 13.3766ZM9.99586 9.67996C9.73063 9.67996 9.47092 9.63023 9.21674 9.53077C8.96256 9.42578 8.71667 9.26554 8.47907 9.05004L0.679652 2.02973L1.54165 1.15945L9.20017 8.06372C9.45434 8.29027 9.71957 8.40354 9.99586 8.40354C10.2777 8.40354 10.5429 8.29027 10.7915 8.06372L18.4501 1.15945L19.3121 2.02973L11.5126 9.05004C11.275 9.26554 11.0291 9.42578 10.775 9.53077C10.5208 9.63023 10.2611 9.67996 9.99586 9.67996ZM1.66598 13.5838L0.803979 12.7135L6.68877 6.82874L7.55077 7.69074L1.66598 13.5838ZM18.3423 13.5921L12.4409 7.69074L13.3112 6.82874L19.2043 12.7218L18.3423 13.5921Z" fill="black" fill-opacity="0.2"/>
</svg>
