<svg width="0" height="0" class="hidden">
  <symbol xmlns="http://www.w3.org/2000/svg" viewBox="0 0 20 15" id="email">
    <path id="Email" d="M2.60257 14.6447C1.74057 14.6447 1.09131 14.4292 0.654787 13.9982C0.218262 13.5672 0 12.9263 0 12.0753V2.92488C0 2.06841 0.207211 1.42744 0.621633 1.00197C1.03605 0.570968 1.61348 0.355469 2.35392 0.355469H17.3974C18.2594 0.355469 18.9087 0.570968 19.3452 1.00197C19.7817 1.42744 20 2.06841 20 2.92488V12.0753C20 12.9263 19.7928 13.5672 19.3784 13.9982C18.9639 14.4292 18.3865 14.6447 17.6461 14.6447H2.60257ZM2.55284 13.3766H17.4389C17.8533 13.3766 18.171 13.2661 18.392 13.0451C18.6186 12.824 18.7319 12.5008 18.7319 12.0753V2.92488C18.7319 2.49941 18.6186 2.17616 18.392 1.95514C18.171 1.73411 17.8533 1.6236 17.4389 1.6236H2.55284C2.14394 1.6236 1.82622 1.73411 1.59967 1.95514C1.37864 2.17616 1.26813 2.49665 1.26813 2.9166V12.067C1.26813 12.498 1.37864 12.824 1.59967 13.0451C1.82622 13.2661 2.14394 13.3766 2.55284 13.3766ZM9.99586 9.67996C9.73063 9.67996 9.47092 9.63023 9.21674 9.53077C8.96256 9.42578 8.71667 9.26554 8.47907 9.05004L0.679652 2.02973L1.54165 1.15945L9.20017 8.06372C9.45434 8.29027 9.71957 8.40354 9.99586 8.40354C10.2777 8.40354 10.5429 8.29027 10.7915 8.06372L18.4501 1.15945L19.3121 2.02973L11.5126 9.05004C11.275 9.26554 11.0291 9.42578 10.775 9.53077C10.5208 9.63023 10.2611 9.67996 9.99586 9.67996ZM1.66598 13.5838L0.803979 12.7135L6.68877 6.82874L7.55077 7.69074L1.66598 13.5838ZM18.3423 13.5921L12.4409 7.69074L13.3112 6.82874L19.2043 12.7218L18.3423 13.5921Z"></path>
  </symbol>
  <symbol xmlns="http://www.w3.org/2000/svg" viewBox="0 0 20 20" id="app">
    <g id="Social Icons">
      <path id="Vector" d="M0 20L1.40583 14.8642C0.538333 13.3608 0.0825 11.6567 0.0833333 9.90917C0.0858333 4.44583 4.53167 0 9.99417 0C12.645 0.000833333 15.1333 1.03333 17.005 2.90667C18.8758 4.78 19.9058 7.27 19.905 9.91833C19.9025 15.3825 15.4567 19.8283 9.99417 19.8283C8.33583 19.8275 6.70167 19.4117 5.25417 18.6217L0 20ZM5.4975 16.8275C6.89417 17.6567 8.2275 18.1533 9.99083 18.1542C14.5308 18.1542 18.2292 14.4592 18.2317 9.91667C18.2333 5.365 14.5525 1.675 9.9975 1.67333C5.45417 1.67333 1.75833 5.36833 1.75667 9.91C1.75583 11.7642 2.29917 13.1525 3.21167 14.605L2.37917 17.645L5.4975 16.8275ZM14.9867 12.2742C14.925 12.1708 14.76 12.1092 14.5117 11.985C14.2642 11.8608 13.0467 11.2617 12.8192 11.1792C12.5925 11.0967 12.4275 11.055 12.2617 11.3033C12.0967 11.5508 11.6217 12.1092 11.4775 12.2742C11.3333 12.4392 11.1883 12.46 10.9408 12.3358C10.6933 12.2117 9.895 11.9508 8.94917 11.1067C8.21333 10.45 7.71583 9.63917 7.57167 9.39083C7.4275 9.14333 7.55667 9.00917 7.68 8.88583C7.79167 8.775 7.9275 8.59667 8.05167 8.45167C8.1775 8.30833 8.21833 8.205 8.30167 8.03917C8.38417 7.87417 8.34333 7.72917 8.28083 7.605C8.21833 7.48167 7.72333 6.2625 7.5175 5.76667C7.31583 5.28417 7.11167 5.34917 6.96 5.34167L6.485 5.33333C6.32 5.33333 6.05167 5.395 5.825 5.64333C5.59833 5.89167 4.95833 6.49 4.95833 7.70917C4.95833 8.92833 5.84583 10.1058 5.96917 10.2708C6.09333 10.4358 7.715 12.9375 10.1992 14.01C10.79 14.265 11.2517 14.4175 11.6108 14.5317C12.2042 14.72 12.7442 14.6933 13.1708 14.63C13.6467 14.5592 14.6358 14.0308 14.8425 13.4525C15.0492 12.8733 15.0492 12.3775 14.9867 12.2742Z"></path>
    </g>
  </symbol>
  <symbol xmlns="http://www.w3.org/2000/svg" viewBox="0 0 21 20" id="cal">
    <g id="Group 13">
      <path id="Vector"  d="M13.7264 12.9712C13.0782 13.5345 12.2716 14.2352 10.8024 14.2352H9.92528C8.86366 14.2352 7.89803 13.8577 7.20723 13.1718C6.53265 12.5017 6.16007 11.5854 6.16007 10.5903V9.41349C6.16007 8.4184 6.53177 7.50126 7.20723 6.83203C7.89847 6.14615 8.86366 5.76861 9.92528 5.76861H10.8024C12.2712 5.76861 13.0782 6.46938 13.7264 7.03262C14.3988 7.61689 14.9796 8.12145 16.5269 8.12145C16.7671 8.12145 17.0029 8.10261 17.2322 8.06626C17.2304 8.06144 17.2287 8.0575 17.2269 8.05312C17.1349 7.82975 17.0266 7.60988 16.9017 7.3979L15.8672 5.64159C14.9182 4.02982 13.1636 3.03735 11.2657 3.03735H9.19635C7.2984 3.03735 5.54379 4.03026 4.59481 5.64159L3.56036 7.3979C2.61139 9.00967 2.61139 10.9946 3.56036 12.6059L4.59481 14.3622C5.54379 15.974 7.2984 16.966 9.19635 16.966H11.2657C13.1636 16.966 14.9182 15.9731 15.8672 14.3622L16.9017 12.6059C17.0266 12.3935 17.1349 12.1745 17.2269 11.9512C17.2287 11.9463 17.2304 11.9424 17.2322 11.938C17.0029 11.9017 16.768 11.8828 16.5269 11.8828C14.98 11.8824 14.3988 12.3869 13.7264 12.9712Z" ></path>
      <path id="Vector_2"  d="M10.8029 6.83398H9.92578C8.31011 6.83398 7.24805 7.96529 7.24805 9.41326V10.5901C7.24805 12.0381 8.30967 13.1694 9.92578 13.1694H10.8029C13.1571 13.1694 12.9721 10.8166 16.527 10.8166C16.8675 10.8166 17.2042 10.8472 17.5316 10.9068C17.6394 10.3085 17.6394 9.69619 17.5316 9.09747C17.2037 9.15704 16.8675 9.1877 16.527 9.1877C12.9721 9.18726 13.1571 6.83398 10.8029 6.83398Z" ></path>
      <path id="Vector_3" d="M19.573 11.7659C18.9659 11.3271 18.2694 11.0406 17.5308 10.9057C17.5295 10.9114 17.5291 10.9171 17.5277 10.9228C17.4646 11.2675 17.366 11.607 17.231 11.9363C17.8543 12.0353 18.4285 12.2648 18.9194 12.6174C18.9177 12.6226 18.9164 12.6279 18.9146 12.6336C18.6315 13.5345 18.2045 14.3838 17.6465 15.1564C17.0951 15.9193 16.4284 16.5912 15.6644 17.1522C14.0786 18.3181 12.1898 18.934 10.2016 18.934C8.97076 18.934 7.7772 18.6979 6.65378 18.2323C5.56892 17.7825 4.59409 17.1382 3.75601 16.317C2.91837 15.4958 2.26132 14.5406 1.80239 13.4767C1.32769 12.3756 1.08661 11.2058 1.08661 9.99912C1.08661 8.79249 1.32769 7.62263 1.80239 6.52155C2.26132 5.45813 2.91837 4.50245 3.75601 3.68124C4.59365 2.86002 5.56848 2.21619 6.65378 1.76594C7.77677 1.30037 8.97032 1.0643 10.2016 1.0643C12.1898 1.0643 14.0786 1.6801 15.6644 2.84601C16.4284 3.4075 17.0947 4.07892 17.6465 4.84189C18.2045 5.61493 18.6315 6.46417 18.9146 7.36466C18.9164 7.37036 18.9181 7.37561 18.9194 7.38087C18.4289 7.73301 17.8543 7.96339 17.231 8.06193C17.366 8.39173 17.4651 8.73204 17.5277 9.07673C17.5291 9.08243 17.5295 9.08768 17.5308 9.09338C18.2694 8.95848 18.9655 8.67204 19.573 8.23318C20.1551 7.81097 20.0424 7.334 19.9539 7.05107C18.6709 2.96864 14.7904 0 10.202 0C4.56735 0 0 4.47705 0 10C0 15.523 4.56779 20 10.202 20C14.7904 20 18.6709 17.0309 19.9539 12.9463C20.0429 12.6651 20.1559 12.1886 19.573 11.7659Z" ></path>
      <path id="Vector_4"  d="M17.2318 8.06523C17.0025 8.10158 16.7676 8.12042 16.5265 8.12042C14.9796 8.12042 14.3984 7.61586 13.726 7.03159C13.0778 6.46835 12.2712 5.76758 10.802 5.76758H9.92488C8.86326 5.76758 7.89763 6.14512 7.20683 6.831C6.53225 7.50111 6.15967 8.41737 6.15967 9.41246V10.5893C6.15967 11.5844 6.53137 12.5015 7.20683 13.1708C7.89807 13.8567 8.86326 14.2342 9.92488 14.2342H10.802C12.2708 14.2342 13.0778 13.533 13.726 12.9702C14.3984 12.3859 14.9792 11.8814 16.5265 11.8814C16.7667 11.8814 17.0025 11.9002 17.2318 11.9366C17.3668 11.6072 17.465 11.2673 17.5285 10.9231C17.5298 10.9174 17.5303 10.9117 17.5316 10.906C17.2037 10.8464 16.8675 10.8158 16.5269 10.8158C12.9721 10.8158 13.1571 13.1686 10.8028 13.1686H9.92576C8.31009 13.1686 7.24803 12.0373 7.24803 10.5893V9.41246C7.24803 7.96449 8.30965 6.83319 9.92576 6.83319H10.8028C13.1571 6.83319 12.9726 9.18603 16.5269 9.18603C16.8675 9.18603 17.2041 9.15537 17.5316 9.0958C17.5303 9.09011 17.5298 9.08485 17.5285 9.07916C17.4658 8.73534 17.3668 8.39547 17.2318 8.06523Z" ></path>
      <path id="Vector_5" d="M17.2318 8.06523C17.0025 8.10158 16.7676 8.12042 16.5265 8.12042C14.9796 8.12042 14.3984 7.61586 13.726 7.03159C13.0778 6.46835 12.2712 5.76758 10.802 5.76758H9.92488C8.86326 5.76758 7.89763 6.14512 7.20683 6.831C6.53225 7.50111 6.15967 8.41737 6.15967 9.41246V10.5893C6.15967 11.5844 6.53137 12.5015 7.20683 13.1708C7.89807 13.8567 8.86326 14.2342 9.92488 14.2342H10.802C12.2708 14.2342 13.0778 13.533 13.726 12.9702C14.3984 12.3859 14.9792 11.8814 16.5265 11.8814C16.7667 11.8814 17.0025 11.9002 17.2318 11.9366C17.3668 11.6072 17.465 11.2673 17.5285 10.9231C17.5298 10.9174 17.5303 10.9117 17.5316 10.906C17.2037 10.8464 16.8675 10.8158 16.5269 10.8158C12.9721 10.8158 13.1571 13.1686 10.8028 13.1686H9.92576C8.31009 13.1686 7.24803 12.0373 7.24803 10.5893V9.41246C7.24803 7.96449 8.30965 6.83319 9.92576 6.83319H10.8028C13.1571 6.83319 12.9726 9.18603 16.5269 9.18603C16.8675 9.18603 17.2041 9.15537 17.5316 9.0958C17.5303 9.09011 17.5298 9.08485 17.5285 9.07916C17.4658 8.73534 17.3668 8.39547 17.2318 8.06523Z" ></path>
    </g>
  </symbol>
  <symbol xmlns="http://www.w3.org/2000/svg" viewBox="0 0 20 20" id="in">
    
      <path id="Vector" d="M18.5195 0H1.47656C0.660156 0 0 0.644531 0 1.44141V18.5547C0 19.3516 0.660156 20 1.47656 20H18.5195C19.3359 20 20 19.3516 20 18.5586V1.44141C20 0.644531 19.3359 0 18.5195 0ZM5.93359 17.043H2.96484V7.49609H5.93359V17.043ZM4.44922 6.19531C3.49609 6.19531 2.72656 5.42578 2.72656 4.47656C2.72656 3.52734 3.49609 2.75781 4.44922 2.75781C5.39844 2.75781 6.16797 3.52734 6.16797 4.47656C6.16797 5.42188 5.39844 6.19531 4.44922 6.19531ZM17.043 17.043H14.0781V12.4023C14.0781 11.2969 14.0586 9.87109 12.5352 9.87109C10.9922 9.87109 10.7578 11.0781 10.7578 12.3242V17.043H7.79688V7.49609H10.6406V8.80078H10.6797C11.0742 8.05078 12.043 7.25781 13.4844 7.25781C16.4883 7.25781 17.043 9.23438 17.043 11.8047V17.043Z" ></path>
  
    
  </symbol>
  <symbol xmlns="http://www.w3.org/2000/svg" viewBox="0 0 103 122" id="defi">
    <path d="M1.5 23.093L51.5 1L101.5 23.093V55.6512C101.5 83.5581 84.0581 105.651 51.5 120.767C21.2674 105.651 1.5 84.7209 1.5 55.6512V23.093Z" ></path>
    <path d="M32.1525 48.6C35.0859 48.6 37.3519 49.304 38.9505 50.712C40.5492 52.1053 41.3485 53.968 41.3485 56.3C41.3485 58.632 40.5492 60.502 38.9505 61.91C37.3519 63.3033 35.0859 64 32.1525 64H24.7825V48.6H32.1525ZM32.0205 62.614C34.4845 62.614 36.3765 62.0347 37.6965 60.876C39.0165 59.7173 39.6765 58.192 39.6765 56.3C39.6765 54.408 39.0165 52.8827 37.6965 51.724C36.3765 50.5653 34.4845 49.986 32.0205 49.986H26.4545V62.614H32.0205ZM57.699 58.456V58.676H45.137C45.2397 60.1133 45.8117 61.2133 46.853 61.976C47.909 62.724 49.2877 63.098 50.989 63.098C52.2063 63.098 53.2403 62.9073 54.091 62.526C54.9563 62.1447 55.5723 61.6387 55.939 61.008L57.435 61.074C57.0244 62.0713 56.2617 62.856 55.147 63.428C54.047 63.9853 52.661 64.264 50.989 64.264C48.701 64.264 46.8897 63.7507 45.555 62.724C44.2203 61.6973 43.553 60.2013 43.553 58.236C43.553 56.2853 44.213 54.7967 45.533 53.77C46.8677 52.7287 48.613 52.208 50.769 52.208C52.9837 52.208 54.6923 52.736 55.895 53.792C57.0977 54.8333 57.699 56.388 57.699 58.456ZM50.769 53.374C49.1997 53.374 47.9017 53.7407 46.875 54.474C45.863 55.1927 45.291 56.234 45.159 57.598H56.137C56.093 56.3073 55.587 55.2807 54.619 54.518C53.651 53.7553 52.3677 53.374 50.769 53.374ZM60.9193 64V48.6H74.2073V49.986H62.5913V55.816H72.0733V57.18H62.5913V64H60.9193ZM76.9583 50.514V48.138H78.6303V50.514H76.9583ZM77.0023 64V52.472H78.5863V64H77.0023Z"></path>
  </symbol>
  <symbol fill="none" xmlns="http://www.w3.org/2000/svg" viewBox="0 0 119 114" id="total">
    <g id="Group 9">
      <path id="Rectangle 3" d="M93 52V26L68.5 1H1V113H93V97" ></path>
      <g id="Group 6">
        <g id="Group 5">
          <circle id="Ellipse 5" cx="84.5" cy="74.5" r="23.9"  ></circle>
          <path id="Vector 12" d="M105 95L118 108"  ></path>
        </g>
        <path id="Portal" d="M49 57.0018L50 57C50 49.2524 56.2688 42.9731 64 42.9731V42.4731V41.9731C56.2861 41.9731 50.0279 35.722 50 27.9982L49 28C49 35.7476 42.7311 42.0269 35 42.0269V42.5269V43.0269C42.7139 43.0269 48.972 49.278 49 57.0018Z" ></path>
        <path id="Portal_2" d="M65 32.0018L66 32C66 29.2321 68.2394 26.9898 71 26.9898V26.4898V25.9898C68.2456 25.9898 66.01 23.7576 66 20.9982L65 21C65 23.7679 62.7605 26.0102 60 26.0102V26.5102V27.0102C62.7544 27.0102 64.99 29.2424 65 32.0018Z" ></path>
      </g>
    </g>
  </symbol>
   <symbol  xmlns="http://www.w3.org/2000/svg" viewBox="0 0 116 125" id="kyc">
    <path d="M81.5 34L115 34L115 93.375L115 124L0.999996 124L1 34L31.5 34" ></path>
    <circle cx="56.5" cy="26.5" r="25.9" ></circle>
    <path d="M46 27.1765L52.8868 34L67 20" ></path>
    <path d="M62 69H97" ></path>
    <path d="M62 85H97" ></path>
    <path d="M62 101H97" ></path>
    <circle cx="32.5" cy="72.5" r="8.9" ></circle>
    <path d="M15.6204 101.9H15.6105C15.9264 92.8443 23.3672 85.6 32.5 85.6C41.6328 85.6 49.0736 92.8443 49.3895 101.9H49.3797H49.3653H49.3508H49.3361H49.3213H49.3063H49.2912H49.2759H49.2605H49.2449H49.2291H49.2132H49.1972H49.181H49.1646H49.1481H49.1314H49.1146H49.0976H49.0805H49.0632H49.0458H49.0282H49.0105H48.9926H48.9746H48.9564H48.9381H48.9196H48.901H48.8822H48.8633H48.8442H48.825H48.8057H48.7861H48.7665H48.7467H48.7267H48.7066H48.6864H48.666H48.6454H48.6248H48.6039H48.583H48.5618H48.5406H48.5192H48.4976H48.4759H48.4541H48.4321H48.41H48.3877H48.3653H48.3428H48.3201H48.2973H48.2743H48.2512H48.2279H48.2046H48.181H48.1574H48.1335H48.1096H48.0855H48.0613H48.0369H48.0124H47.9878H47.963H47.9381H47.913H47.8878H47.8625H47.8371H47.8115H47.7857H47.7599H47.7339H47.7077H47.6814H47.655H47.6285H47.6018H47.575H47.5481H47.521H47.4938H47.4665H47.439H47.4114H47.3837H47.3558H47.3278H47.2997H47.2714H47.243H47.2145H47.1859H47.1571H47.1282H47.0991H47.07H47.0407H47.0113H46.9817H46.9521H46.9223H46.8923H46.8623H46.8321H46.8018H46.7713H46.7408H46.7101H46.6793H46.6484H46.6173H46.5861H46.5548H46.5234H46.4918H46.4601H46.4283H46.3964H46.3644H46.3322H46.2999H46.2675H46.235H46.2023H46.1695H46.1366H46.1036H46.0705H46.0372H46.0039H45.9704H45.9367H45.903H45.8692H45.8352H45.8011H45.7669H45.7326H45.6981H45.6636H45.6289H45.5941H45.5592H45.5242H45.4891H45.4538H45.4185H45.383H45.3474H45.3117H45.2758H45.2399H45.2039H45.1677H45.1314H45.095H45.0585H45.0219H44.9852H44.9484H44.9114H44.8744H44.8372H44.7999H44.7625H44.725H44.6874H44.6497H44.6119H44.574H44.5359H44.4978H44.4595H44.4211H44.3827H44.3441H44.3054H44.2666H44.2277H44.1887H44.1496H44.1104H44.071H44.0316H43.9921H43.9524H43.9127H43.8729H43.8329H43.7929H43.7527H43.7124H43.6721H43.6316H43.5911H43.5504H43.5096H43.4688H43.4278H43.3867H43.3455H43.3043H43.2629H43.2214H43.1799H43.1382H43.0964H43.0546H43.0126H42.9705H42.9284H42.8861H42.8438H42.8013H42.7588H42.7161H42.6734H42.6305H42.5876H42.5446H42.5014H42.4582H42.4149H42.3715H42.328H42.2844H42.2407H42.1969H42.1531H42.1091H42.065H42.0209H41.9767H41.9323H41.8879H41.8434H41.7988H41.7541H41.7093H41.6644H41.6194H41.5744H41.5292H41.484H41.4387H41.3933H41.3478H41.3022H41.2565H41.2107H41.1649H41.119H41.0729H41.0268H40.9806H40.9344H40.888H40.8415H40.795H40.7484H40.7017H40.6549H40.608H40.5611H40.514H40.4669H40.4197H40.3724H40.325H40.2776H40.2301H40.1824H40.1347H40.087H40.0391H39.9912H39.9432H39.8951H39.8469H39.7986H39.7503H39.7019H39.6534H39.6048H39.5562H39.5075H39.4587H39.4098H39.3608H39.3118H39.2627H39.2135H39.1642H39.1149H39.0655H39.016H38.9664H38.9168H38.8671H38.8173H38.7675H38.7175H38.6675H38.6175H38.5673H38.5171H38.4668H38.4164H38.366H38.3155H38.2649H38.2143H38.1635H38.1128H38.0619H38.011H37.96H37.9089H37.8578H37.8066H37.7553H37.704H37.6526H37.6011H37.5495H37.4979H37.4463H37.3945H37.3427H37.2908H37.2389H37.1869H37.1348H37.0827H37.0305H36.9782H36.9259H36.8735H36.8211H36.7686H36.716H36.6633H36.6106H36.5579H36.505H36.4522H36.3992H36.3462H36.2931H36.24H36.1868H36.1335H36.0802H36.0269H35.9734H35.9199H35.8664H35.8128H35.7591H35.7054H35.6516H35.5978H35.5439H35.4899H35.4359H35.3819H35.3278H35.2736H35.2194H35.1651H35.1107H35.0563H35.0019H34.9474H34.8928H34.8382H34.7836H34.7289H34.6741H34.6193H34.5644H34.5095H34.4545H34.3995H34.3444H34.2893H34.2341H34.1789H34.1236H34.0683H34.0129H33.9575H33.902H33.8465H33.7909H33.7353H33.6796H33.6239H33.5681H33.5123H33.4565H33.4005H33.3446H33.2886H33.2326H33.1765H33.1203H33.0642H33.0079H32.9517H32.8954H32.839H32.7826H32.7262H32.6697H32.6132H32.5566H32.5H32.4434H32.3868H32.3303H32.2738H32.2174H32.161H32.1046H32.0483H31.9921H31.9358H31.8797H31.8235H31.7674H31.7114H31.6554H31.5995H31.5435H31.4877H31.4319H31.3761H31.3204H31.2647H31.2091H31.1535H31.098H31.0425H30.9871H30.9317H30.8764H30.8211H30.7659H30.7107H30.6556H30.6005H30.5455H30.4905H30.4356H30.3807H30.3259H30.2711H30.2164H30.1618H30.1072H30.0526H29.9981H29.9437H29.8893H29.8349H29.7806H29.7264H29.6722H29.6181H29.5641H29.5101H29.4561H29.4022H29.3484H29.2946H29.2409H29.1872H29.1336H29.0801H29.0266H28.9731H28.9198H28.8665H28.8132H28.76H28.7069H28.6538H28.6008H28.5478H28.495H28.4421H28.3894H28.3367H28.284H28.2314H28.1789H28.1265H28.0741H28.0218H27.9695H27.9173H27.8652H27.8131H27.7611H27.7092H27.6573H27.6055H27.5537H27.5021H27.4505H27.3989H27.3474H27.296H27.2447H27.1934H27.1422H27.0911H27.04H26.989H26.9381H26.8872H26.8365H26.7857H26.7351H26.6845H26.634H26.5836H26.5332H26.4829H26.4327H26.3825H26.3325H26.2825H26.2325H26.1827H26.1329H26.0832H26.0336H25.984H25.9345H25.8851H25.8358H25.7865H25.7373H25.6882H25.6392H25.5902H25.5413H25.4925H25.4438H25.3952H25.3466H25.2981H25.2497H25.2014H25.1531H25.1049H25.0568H25.0088H24.9609H24.913H24.8653H24.8176H24.7699H24.7224H24.675H24.6276H24.5803H24.5331H24.486H24.4389H24.392H24.3451H24.2983H24.2516H24.205H24.1585H24.112H24.0656H24.0194H23.9732H23.9271H23.881H23.8351H23.7893H23.7435H23.6978H23.6522H23.6067H23.5613H23.516H23.4708H23.4256H23.3806H23.3356H23.2907H23.2459H23.2012H23.1566H23.1121H23.0677H23.0233H22.9791H22.935H22.8909H22.8469H22.8031H22.7593H22.7156H22.672H22.6285H22.5851H22.5418H22.4986H22.4554H22.4124H22.3695H22.3266H22.2839H22.2412H22.1987H22.1562H22.1139H22.0716H22.0295H21.9874H21.9454H21.9036H21.8618H21.8201H21.7786H21.7371H21.6957H21.6545H21.6133H21.5722H21.5312H21.4904H21.4496H21.4089H21.3684H21.3279H21.2876H21.2473H21.2071H21.1671H21.1271H21.0873H21.0476H21.0079H20.9684H20.929H20.8896H20.8504H20.8113H20.7723H20.7334H20.6946H20.6559H20.6173H20.5789H20.5405H20.5022H20.4641H20.426H20.3881H20.3503H20.3126H20.275H20.2375H20.2001H20.1628H20.1256H20.0886H20.0516H20.0148H19.9781H19.9415H19.905H19.8686H19.8323H19.7961H19.7601H19.7242H19.6883H19.6526H19.617H19.5815H19.5462H19.5109H19.4758H19.4408H19.4059H19.3711H19.3364H19.3019H19.2674H19.2331H19.1989H19.1648H19.1308H19.097H19.0633H19.0296H18.9961H18.9628H18.9295H18.8964H18.8634H18.8305H18.7977H18.765H18.7325H18.7001H18.6678H18.6356H18.6036H18.5717H18.5399H18.5082H18.4766H18.4452H18.4139H18.3827H18.3516H18.3207H18.2899H18.2592H18.2287H18.1982H18.1679H18.1377H18.1077H18.0777H18.0479H18.0183H17.9887H17.9593H17.93H17.9009H17.8718H17.8429H17.8141H17.7855H17.757H17.7286H17.7003H17.6722H17.6442H17.6163H17.5886H17.561H17.5335H17.5062H17.479H17.4519H17.425H17.3982H17.3715H17.345H17.3185H17.2923H17.2661H17.2401H17.2143H17.1885H17.1629H17.1375H17.1122H17.087H17.0619H17.037H17.0122H16.9876H16.9631H16.9387H16.9145H16.8904H16.8665H16.8426H16.819H16.7954H16.7721H16.7488H16.7257H16.7027H16.6799H16.6572H16.6347H16.6123H16.59H16.5679H16.5459H16.5241H16.5024H16.4808H16.4594H16.4382H16.417H16.3961H16.3752H16.3546H16.334H16.3136H16.2934H16.2733H16.2533H16.2335H16.2139H16.1943H16.175H16.1558H16.1367H16.1178H16.099H16.0804H16.0619H16.0436H16.0254H16.0074H15.9895H15.9718H15.9542H15.9368H15.9195H15.9024H15.8854H15.8686H15.8519H15.8354H15.819H15.8028H15.7868H15.7709H15.7551H15.7395H15.7241H15.7088H15.6937H15.6787H15.6639H15.6492H15.6347H15.6204Z"></path>
  </symbol>
</svg>